#!OML:ASF C:\Vicon Data\Big\jianyuan-12\jianyuan\Session 1\Capture.male.ASF
:FULLY-SPECIFIED
:DEGREES
167
root -11.076204 17.345868 -12.078755 -2.774603 -31.107483 13.969265
lowerback -9.190986 0.753602 -9.038493 
upperback 2.411500 2.453963 -3.270853 
thorax 7.540371 0.910861 1.982634 
lowerneck 3.742794 -11.866494 -6.206056 
upperneck -6.182760 -15.329099 16.211614 
head -0.640208 -7.915638 5.879691 
rclavicle 0.000000 0.000000 
rhumerus -32.832962 -28.927744 -81.437183 
rradius 36.270542 
rwrist 31.490988 
rhand -20.899223 -6.223871 
rfingers 0.000000 
rthumb 5.471625 -36.133203 
lclavicle 0.000000 0.000000 
lhumerus -46.653195 41.734554 58.205494 
lradius 24.976098 
lwrist -55.889306 
lhand -8.546178 5.535084 
lfingers 0.000000 
lthumb 17.383276 34.777786 
rfemur -9.012314 -8.952444 11.294152 
rtibia 59.468745 
rfoot -4.714927 -3.529186 
rtoes 4.261119 
lfemur -20.312850 -2.302289 -26.338326 
ltibia 19.785308 
lfoot -9.524106 -4.154719 
ltoes -28.357894 
168
root -11.102042 17.356112 -12.008997 -3.005024 -31.418902 14.368816
lowerback -9.115550 0.695163 -9.338098 
upperback 2.384508 2.413289 -3.365068 
thorax 7.468010 0.886069 2.040255 
lowerneck 3.705750 -11.879961 -6.294743 
upperneck -6.188354 -15.343424 16.408405 
head -0.610016 -7.923429 5.946131 
rclavicle 0.000000 0.000000 
rhumerus -33.164828 -28.939234 -81.317360 
rradius 36.229320 
rwrist 31.071720 
rhand -20.993592 -6.251396 
rfingers 0.000000 
rthumb 5.380535 -36.163059 
lclavicle 0.000000 0.000000 
lhumerus -46.107880 41.455107 58.762531 
lradius 25.089131 
lwrist -55.518246 
lhand -8.496238 5.562963 
lfingers 0.000000 
lthumb 17.431310 34.801329 
rfemur -10.011984 -9.746204 10.684330 
rtibia 61.020057 
rfoot -4.042795 -3.959209 
rtoes 3.894901 
lfemur -19.854536 -2.056905 -26.743153 
ltibia 19.508966 
lfoot -9.696664 -4.140191 
ltoes -28.269097 
169
root -11.123266 17.365723 -11.941052 -3.199086 -31.688069 14.716291
lowerback -9.009872 0.625328 -9.559197 
upperback 2.359877 2.342228 -3.451500 
thorax 7.385918 0.850032 2.057726 
lowerneck 3.703794 -11.874694 -6.417522 
upperneck -6.234307 -15.331233 16.614212 
head -0.596807 -7.920422 6.025442 
rclavicle 0.000000 0.000000 
rhumerus -33.476110 -29.279320 -81.074837 
rradius 36.099315 
rwrist 31.061925 
rhand -20.814904 -5.954991 
rfingers 0.000000 
rthumb 5.553043 -35.862217 
lclavicle 0.000000 0.000000 
lhumerus -45.588943 41.325179 59.218163 
lradius 25.160023 
lwrist -55.254034 
lhand -8.364708 5.493361 
lfingers 0.000000 
lthumb 17.557912 34.720525 
rfemur -11.019896 -10.650624 10.120424 
rtibia 62.522320 
rfoot -3.446057 -4.417956 
rtoes 3.708765 
lfemur -19.431308 -1.879732 -27.109500 
ltibia 19.243546 
lfoot -9.877903 -4.065891 
ltoes -28.356266 
170
root -11.150439 17.374990 -11.872854 -3.334570 -32.050503 14.920105
lowerback -8.963568 0.573716 -9.677349 
upperback 2.357373 2.287024 -3.497823 
thorax 7.361513 0.821226 2.064650 
lowerneck 3.714911 -11.849023 -6.567489 
upperneck -6.308635 -15.288209 16.861681 
head -0.591751 -7.903806 6.124284 
rclavicle 0.000000 0.000000 
rhumerus -33.724831 -29.495625 -80.939455 
rradius 36.012914 
rwrist 31.170985 
rhand -20.734216 -5.930923 
rfingers 0.000000 
rthumb 5.630923 -35.836096 
lclavicle 0.000000 0.000000 
lhumerus -45.104067 41.229980 59.622666 
lradius 25.159373 
lwrist -55.567457 
lhand -8.518054 5.534037 
lfingers 0.000000 
lthumb 17.410302 34.774314 
rfemur -12.013025 -11.365638 9.803479 
rtibia 63.961387 
rfoot -3.125794 -5.102253 
rtoes 3.620522 
lfemur -18.989824 -1.749568 -27.290396 
ltibia 18.998397 
lfoot -10.147965 -3.878094 
ltoes -28.316002 
171
root -11.183237 17.385169 -11.807013 -3.387328 -32.412326 15.037161
lowerback -8.965275 0.516820 -9.776633 
upperback 2.345966 2.224759 -3.518005 
thorax 7.355306 0.788000 2.088986 
lowerneck 3.680051 -11.844646 -6.703597 
upperneck -6.326353 -15.281494 17.058965 
head -0.563870 -7.901031 6.199544 
rclavicle 0.000000 0.000000 
rhumerus -33.960273 -29.393374 -80.942730 
rradius 35.982662 
rwrist 30.778156 
rhand -20.890383 -6.131262 
rfingers 0.000000 
rthumb 5.480214 -36.040369 
lclavicle 0.000000 0.000000 
lhumerus -44.644747 41.146141 59.957136 
lradius 25.159553 
lwrist -55.899601 
lhand -8.641216 5.421296 
lfingers 0.000000 
lthumb 17.291740 34.671997 
rfemur -13.067718 -12.054220 9.675065 
rtibia 65.343795 
rfoot -3.027155 -6.039319 
rtoes 2.907038 
lfemur -18.626011 -1.593276 -27.365328 
ltibia 18.816078 
lfoot -10.427581 -3.736921 
ltoes -28.207781 
172
root -11.212289 17.393882 -11.743870 -3.529585 -32.799692 15.289922
lowerback -8.910757 0.473425 -9.961937 
upperback 2.333314 2.187089 -3.568273 
thorax 7.312192 0.766280 2.131153 
lowerneck 3.604578 -11.836820 -6.789801 
upperneck -6.337997 -15.270031 17.171974 
head -0.539371 -7.893370 6.240320 
rclavicle 0.000000 0.000000 
rhumerus -34.187011 -29.330202 -80.900410 
rradius 35.933909 
rwrist 30.326361 
rhand -20.949322 -6.100646 
rfingers 0.000000 
rthumb 5.423276 -36.011244 
lclavicle 0.000000 0.000000 
lhumerus -43.906106 40.649610 60.748423 
lradius 25.368278 
lwrist -54.818778 
lhand -8.502412 5.475436 
lfingers 0.000000 
lthumb 17.425342 34.714438 
rfemur -14.086091 -12.700715 9.427977 
rtibia 66.669916 
rfoot -3.308345 -7.060851 
rtoes 2.551404 
lfemur -18.264000 -1.421419 -27.569092 
ltibia 18.651960 
lfoot -10.734915 -3.574544 
ltoes -28.389803 
173
root -11.237415 17.400857 -11.678472 -3.692816 -33.200337 15.582779
lowerback -8.870593 0.413451 -10.134437 
upperback 2.300193 2.126256 -3.625618 
thorax 7.258486 0.735160 2.155768 
lowerneck 3.524822 -11.803463 -6.864517 
upperneck -6.267663 -15.233935 17.250604 
head -0.497356 -7.870276 6.266879 
rclavicle 0.000000 0.000000 
rhumerus -34.450831 -29.191312 -80.817473 
rradius 35.907682 
rwrist 29.973001 
rhand -20.890188 -5.993452 
rfingers 0.000000 
rthumb 5.480359 -35.902549 
lclavicle 0.000000 0.000000 
lhumerus -43.391474 40.516059 61.179470 
lradius 25.506103 
lwrist -53.806445 
lhand -8.181409 5.385871 
lfingers 0.000000 
lthumb 17.734286 34.597166 
rfemur -15.084870 -13.458716 9.117154 
rtibia 67.903006 
rfoot -3.703536 -8.297123 
rtoes 1.776047 
lfemur -17.910037 -1.356848 -27.816055 
ltibia 18.512194 
lfoot -11.065242 -3.303371 
ltoes -28.378759 
174
root -11.269152 17.410436 -11.607998 -3.827802 -33.618320 15.645198
lowerback -8.835215 0.361845 -10.063765 
upperback 2.329038 2.051378 -3.672917 
thorax 7.281246 0.701642 2.055230 
lowerneck 3.544321 -11.740145 -6.916806 
upperneck -6.352817 -15.134523 17.420848 
head -0.518435 -7.826536 6.333582 
rclavicle 0.000000 0.000000 
rhumerus -34.705476 -29.095462 -80.869554 
rradius 35.958642 
rwrist 29.758930 
rhand -20.878424 -5.959292 
rfingers 0.000000 
rthumb 5.491723 -35.868169 
lclavicle 0.000000 0.000000 
lhumerus -42.869245 40.339021 61.543424 
lradius 25.632238 
lwrist -53.244028 
lhand -8.071317 5.372491 
lfingers 0.000000 
lthumb 17.840212 34.574175 
rfemur -15.926448 -14.134515 9.047890 
rtibia 69.053018 
rfoot -4.578802 -9.618567 
rtoes 0.822037 
lfemur -17.422429 -1.376084 -27.835469 
ltibia 18.358569 
lfoot -11.471732 -2.932514 
ltoes -28.326200 
175
root -11.302203 17.419503 -11.529964 -4.117195 -34.091853 15.715537
lowerback -8.769608 0.370680 -9.959045 
upperback 2.453608 2.056648 -3.709330 
thorax 7.382028 0.702469 1.958159 
lowerneck 3.459308 -11.677124 -7.069406 
upperneck -6.392758 -15.040837 17.686514 
head -0.492280 -7.779392 6.433257 
rclavicle 0.000000 0.000000 
rhumerus -34.880565 -29.223593 -80.789388 
rradius 35.877301 
rwrist 29.827278 
rhand -20.889163 -5.797518 
rfingers 0.000000 
rthumb 5.481361 -35.706638 
lclavicle 0.000000 0.000000 
lhumerus -42.154719 40.000064 62.101208 
lradius 25.721344 
lwrist -52.781887 
lhand -8.026266 5.405842 
lfingers 0.000000 
lthumb 17.883589 34.603574 
rfemur -16.610003 -14.714369 8.930571 
rtibia 70.143539 
rfoot -5.849321 -10.689500 
rtoes 0.626505 
lfemur -16.777615 -1.482157 -27.874482 
ltibia 18.231515 
lfoot -11.981132 -2.382577 
ltoes -28.615032 
176
root -11.330224 17.428715 -11.472317 -4.097002 -34.311844 15.752865
lowerback -8.727009 0.266504 -9.986382 
upperback 2.456026 1.915361 -3.710204 
thorax 7.374725 0.632662 1.951249 
lowerneck 3.443986 -11.621298 -7.253143 
upperneck -6.461009 -14.957113 17.970329 
head -0.480856 -7.741186 6.548918 
rclavicle 0.000000 0.000000 
rhumerus -35.089066 -29.196907 -80.732152 
rradius 35.882749 
rwrist 29.885625 
rhand -20.804139 -5.777582 
rfingers 0.000000 
rthumb 5.563436 -35.684557 
lclavicle 0.000000 0.000000 
lhumerus -41.585015 39.918883 62.519070 
lradius 25.826686 
lwrist -52.470363 
lhand -8.061781 5.381516 
lfingers 0.000000 
lthumb 17.849411 34.582367 
rfemur -17.639996 -15.584299 9.021514 
rtibia 71.201820 
rfoot -7.258380 -11.599181 
rtoes 1.402861 
lfemur -16.500023 -1.455755 -27.899239 
ltibia 18.093982 
lfoot -12.238161 -2.232094 
ltoes -28.670421 
177
root -11.358553 17.438035 -11.420436 -3.977126 -34.500090 15.810876
lowerback -8.743442 0.124559 -10.096524 
upperback 2.419374 1.735006 -3.680766 
thorax 7.360800 0.540270 2.017368 
lowerneck 3.380041 -11.600097 -7.352679 
upperneck -6.507395 -14.926649 18.041500 
head -0.473374 -7.724956 6.583152 
rclavicle 0.000000 0.000000 
rhumerus -35.303486 -29.074528 -80.657031 
rradius 35.923942 
rwrist 29.961700 
rhand -20.650474 -5.830672 
rfingers 0.000000 
rthumb 5.711853 -35.733708 
lclavicle 0.000000 0.000000 
lhumerus -41.041869 39.938665 62.935098 
lradius 25.900407 
lwrist -52.138377 
lhand -8.062726 5.416490 
lfingers 0.000000 
lthumb 17.848455 34.617408 
rfemur -18.814410 -16.390676 9.214230 
rtibia 72.199853 
rfoot -8.702882 -12.500646 
rtoes 2.684923 
lfemur -16.342594 -1.318767 -27.943291 
ltibia 17.922012 
lfoot -12.408258 -2.214498 
ltoes -28.698372 
